<svg width="48" height="30" viewBox="0 0 48 30" fill="none" xmlns="http://www.w3.org/2000/svg">
<path d="M35.4588 30H24.3666C24.3571 30 24.3476 30 24.3381 30C24.3286 30 24.3191 30 24.3096 30H9.46482V29.9776C4.17938 29.6268 0 25.192 0 19.7727C0 14.1243 4.54021 9.54543 10.1408 9.54543C10.2532 9.54543 10.3651 9.54727 10.4766 9.55093C12.6388 3.96074 18.0298 0 24.3381 0C28.6347 0 32.5058 1.83743 35.221 4.77567C35.3114 4.77372 35.4021 4.77274 35.493 4.77274C42.4004 4.77274 48 10.4201 48 17.3864C48 24.0084 42.9403 29.4386 36.5071 29.9592V30H35.5272C35.5158 30 35.5044 30 35.493 30C35.4816 30 35.4702 30 35.4588 30Z" fill="white"/>
<path fill-rule="evenodd" clip-rule="evenodd" d="M35.4588 30H24.3665C24.357 30 24.3475 30 24.338 30C24.3285 30 24.3191 30 24.3096 30H9.46482V29.9776C4.17937 29.6267 0 25.1919 0 19.7727C0 14.1243 4.54021 9.54542 10.1408 9.54542C10.2532 9.54542 10.3651 9.54727 10.4766 9.55092C12.6388 3.96073 18.0298 0 24.338 0C28.6347 0 32.5058 1.83743 35.2209 4.77567C35.3114 4.77372 35.4021 4.77274 35.493 4.77274C42.4004 4.77274 48 10.4201 48 17.3864C48 24.0084 42.9402 29.4385 36.5071 29.9591V30H35.5272C35.5158 30 35.5044 30 35.493 30C35.4816 30 35.4702 30 35.4588 30Z" fill="url(#paint0_linear_12_128)" fill-opacity="0.38"/>
<path fill-rule="evenodd" clip-rule="evenodd" d="M19.3556 19.096C19.8124 18.7829 20.4343 18.9025 20.7448 19.3631C21.3934 20.3254 22.6197 21.0195 24.0781 21.0195C25.5366 21.0195 26.7629 20.3254 27.4115 19.3631C27.7219 18.9025 28.3439 18.7829 28.8006 19.096C29.2574 19.4092 29.376 20.0364 29.0655 20.4971C28.0199 22.0483 26.1538 23.0365 24.0781 23.0365C22.0025 23.0365 20.1363 22.0483 19.0908 20.4971C18.7803 20.0364 18.8989 19.4092 19.3556 19.096Z" fill="#1E2124"/>
<path d="M14.9251 15.3146C14.9251 14.3877 15.6702 13.6363 16.5892 13.6363C17.5083 13.6363 18.2534 14.3877 18.2534 15.3146C18.2534 16.2416 17.5083 16.993 16.5892 16.993C15.6702 16.993 14.9251 16.2416 14.9251 15.3146Z" fill="#1E2124"/>
<path d="M29.9026 15.3146C29.9026 14.3877 30.6476 13.6363 31.5667 13.6363C32.4858 13.6363 33.2309 14.3877 33.2309 15.3146C33.2309 16.2416 32.4858 16.993 31.5667 16.993C30.6476 16.993 29.9026 16.2416 29.9026 15.3146Z" fill="#1E2124"/>
<defs>
<linearGradient id="paint0_linear_12_128" x1="26" y1="-2.52131" x2="36.6615" y2="29.1929" gradientUnits="userSpaceOnUse">
<stop offset="0.161458" stop-color="white"/>
<stop offset="0.671875" stop-color="#2642A5"/>
<stop offset="0.932292" stop-color="#11141E"/>
</linearGradient>
</defs>
</svg>
